STARTFONT 2.1
COMMENT 
COMMENT  NetHack 14x20 font Created <nishi@bsd1.kb.nec.co.jp>;
COMMENT  public domain font from Japan
COMMENT 
FONT nh14
SIZE 20 75 75
FONTBOUNDINGBOX 14 20 0 -2
STARTPROPERTIES 19
FONTNAME_REGISTRY ""
FOUNDRY "Misc"
FAMILY_NAME "Fixed"
WEIGHT_NAME "Medium"
SLANT "R"
SETWIDTH_NAME "Nethack"
ADD_STYLE_NAME ""
PIXEL_SIZE 20
POINT_SIZE 150
RESOLUTION_X 75
RESOLUTION_Y 75
SPACING "C"
AVERAGE_WIDTH 80
CHARSET_REGISTRY "ISO8859"
CHARSET_ENCODING "1"
DEFAULT_CHAR 32
FONT_DESCENT 2
FONT_ASCENT 18
COPYRIGHT "Public domain font.  Share and enjoy."
ENDPROPERTIES
CHARS 256
STARTCHAR 0000 null
ENCODING 0
SWIDTH 512 0
DWIDTH 14 0
BBX 14 20 0 -2
BITMAP
0000
fff8
8008
a528
b528
b528
ad28
ad28
a528
a4c8
8008
a108
a108
a108
a108
a108
a108
bde8
8008
fff8
ENDCHAR
STARTCHAR 0001
ENCODING 1
SWIDTH 512 0
DWIDTH 14 0
BBX 14 20 0 -2
BITMAP
0000
0000
0000
0000
0000
0300
0780
0fc0
0780
0300
0000
0000
0000
0000
0000
0000
0000
0000
0000
0000
ENDCHAR
STARTCHAR 0002
ENCODING 2
SWIDTH 512 0
DWIDTH 14 0
BBX 14 20 0 -2
BITMAP
aaa8
5554
aaa8
5554
aaa8
5554
aaa8
5554
aaa8
5554
aaa8
5554
aaa8
5554
aaa8
5554
aaa8
5554
aaa8
5554
ENDCHAR
STARTCHAR 0003
ENCODING 3
SWIDTH 512 0
DWIDTH 14 0
BBX 14 20 0 -2
BITMAP
0000
0000
2100
2100
2100
3f00
2100
2100
2100
2100
0000
03f8
0040
0040
0040
0040
0040
0040
0000
0000
ENDCHAR
STARTCHAR 0004
ENCODING 4
SWIDTH 512 0
DWIDTH 14 0
BBX 14 20 0 -2
BITMAP
0000
7f00
4000
4000
4000
7e00
4000
4000
41f8
4100
0100
0100
01f0
0100
0100
0100
0100
0000
0000
0000
ENDCHAR
STARTCHAR 0005
ENCODING 5
SWIDTH 512 0
DWIDTH 14 0
BBX 14 20 0 -2
BITMAP
0000
3c00
4200
4000
4000
4000
4000
4000
40f0
4288
3c88
0088
0088
00f0
0090
0088
0088
0088
0000
0000
ENDCHAR
STARTCHAR 0006
ENCODING 6
SWIDTH 512 0
DWIDTH 14 0
BBX 14 20 0 -2
BITMAP
0000
4000
4000
4000
4000
4000
4000
4000
4000
7e00
0000
03f8
0200
0200
03f0
0200
0200
0200
0000
0000
ENDCHAR
STARTCHAR 0007
ENCODING 7
SWIDTH 512 0
DWIDTH 14 0
BBX 14 20 0 -2
BITMAP
0000
0000
0000
0f80
1040
1040
1040
0f80
0000
0000
0000
0000
0000
0000
0000
0000
0000
0000
0000
0000
ENDCHAR
STARTCHAR 0008
ENCODING 8
SWIDTH 512 0
DWIDTH 14 0
BBX 14 20 0 -2
BITMAP
0000
0100
0100
0100
0100
0100
1ff0
0100
0100
0100
0100
0000
0000
0000
0000
0ff0
0000
0000
0000
0000
ENDCHAR
STARTCHAR 0009
ENCODING 9
SWIDTH 512 0
DWIDTH 14 0
BBX 14 20 0 -2
BITMAP
0000
4100
6100
5100
5100
4900
4500
4500
4300
4100
4100
0000
0200
0200
0200
0200
0200
03f0
0000
0000
ENDCHAR
STARTCHAR 000a
ENCODING 10
SWIDTH 512 0
DWIDTH 14 0
BBX 14 20 0 -2
BITMAP
0000
4100
4100
4100
4100
2200
2200
1400
1400
0800
0800
03f8
0040
0040
0040
0040
0040
0040
0000
0000
ENDCHAR
STARTCHAR 000b lower right corner
ENCODING 11
SWIDTH 512 0
DWIDTH 14 0
BBX 14 20 0 -2
BITMAP
0000
3bf0
3bf0
fbf0
fbf0
fbf0
fbf0
0000
7ef0
7ef0
7ef0
7ef0
7ef0
7ef0
0000
efc0
efc0
ef80
0000
0000
ENDCHAR
STARTCHAR 000c upper right corner
ENCODING 12
SWIDTH 512 0
DWIDTH 14 0
BBX 14 20 0 -2
BITMAP
0000
0000
0000
fbc0
fbe0
fbf0
fbf0
0000
7ef0
7ef0
7ef0
7ef0
7ef0
7ef0
0000
efd0
efd0
efd0
2fd0
2fd0
ENDCHAR
STARTCHAR 000d upper left corner
ENCODING 13
SWIDTH 512 0
DWIDTH 14 0
BBX 14 20 0 -2
BITMAP
0000
0000
0000
0bf4
1bf4
3bf4
3bf4
0000
3efc
3efc
3efc
3efc
3efc
3efc
0000
2fdc
2fdc
2fdc
2fd0
2fd0
ENDCHAR
STARTCHAR 000e lower left corner
ENCODING 14
SWIDTH 512 0
DWIDTH 14 0
BBX 14 20 0 -2
BITMAP
0000
3bf0
3bf0
3bf4
3bf4
3bf4
3bf4
0000
3efc
3efc
3efc
3efc
3efc
3efc
0000
0fdc
0fdc
07dc
0000
0000
ENDCHAR
STARTCHAR 000f cross wall
ENCODING 15
SWIDTH 512 0
DWIDTH 14 0
BBX 14 20 0 -2
BITMAP
0000
3bf0
3bf0
fbf4
fbf4
fbf4
fbf4
0000
7efc
7efc
7efc
7efc
7efc
7efc
0000
efdc
efdc
efdc
2fd0
2fd0
ENDCHAR
STARTCHAR 0010
ENCODING 16
SWIDTH 512 0
DWIDTH 14 0
BBX 14 20 0 -2
BITMAP
0000
0000
0000
0000
0000
0000
0000
0000
0000
0000
0000
0000
0000
0000
0000
0000
0000
0000
0000
0000
ENDCHAR
STARTCHAR 0011
ENCODING 17
SWIDTH 512 0
DWIDTH 14 0
BBX 14 20 0 -2
BITMAP
0000
0000
0000
0000
0000
0000
0000
0000
0000
0000
0000
0000
0000
0000
0000
0000
0000
0000
0000
0000
ENDCHAR
STARTCHAR 0012 horizontal wall
ENCODING 18
SWIDTH 512 0
DWIDTH 14 0
BBX 15 20 0 -2
BITMAP
0000
0000
0000
fbf4
fbf4
fbf4
fbf4
0000
7efc
7efc
7efc
7efc
7efc
7efc
0000
efdc
efdc
efdc
0000
0000
ENDCHAR
STARTCHAR 0013
ENCODING 19
SWIDTH 512 0
DWIDTH 14 0
BBX 14 20 0 -2
BITMAP
0000
0000
0000
0000
0000
0000
0000
0000
0000
0000
0000
0000
0000
0000
0000
0000
0000
0000
0000
0000
ENDCHAR
STARTCHAR 0014
ENCODING 20
SWIDTH 512 0
DWIDTH 14 0
BBX 14 20 0 -2
BITMAP
0000
0000
0000
0000
0000
0000
0000
0000
0000
0000
0000
0000
0000
0000
0000
0000
0000
0000
0000
0000
ENDCHAR
STARTCHAR 0015 rightward T wall
ENCODING 21
SWIDTH 512 0
DWIDTH 14 0
BBX 15 20 0 -2
BITMAP
0000
3bf0
3bf0
3bf4
3bf4
3bf4
3bf4
0000
3efc
3efc
3efc
3efc
3efc
3efc
0000
2fdc
2fdc
2fdc
2fd0
2fd0
ENDCHAR
STARTCHAR 0016 leftward T wall
ENCODING 22
SWIDTH 512 0
DWIDTH 14 0
BBX 14 20 0 -2
BITMAP
0000
3bf0
3bf0
fbf0
fbf0
fbf0
fbf0
0000
7ef0
7ef0
7ef0
7ef0
7ef0
7ef0
0000
efd0
efd0
efd0
2fd0
2fd0
ENDCHAR
STARTCHAR 0017 upward T wall
ENCODING 23
SWIDTH 512 0
DWIDTH 14 0
BBX 14 20 0 -2
BITMAP
0000
3bf0
3bf0
fbf4
fbf4
fbf4
fbf4
0000
7efc
7efc
7efc
7efc
7efc
7efc
0000
efdc
efdc
efdc
0000
0000
ENDCHAR
STARTCHAR 0018 downward T wall
ENCODING 24
SWIDTH 512 0
DWIDTH 14 0
BBX 14 20 0 -2
BITMAP
0000
0000
0000
fbf4
fbf4
fbf4
fbf4
0000
7efc
7efc
7efc
7efc
7efc
7efc
0000
efdc
efdc
efdc
2fd0
2fd0
ENDCHAR
STARTCHAR 0019 vertical wall
ENCODING 25
SWIDTH 512 0
DWIDTH 14 0
BBX 14 20 0 -2
BITMAP
0000
3bf0
3bf0
3bf0
3bf0
3bf0
3bf0
0000
3ef0
3ef0
3ef0
3ef0
3ef0
3ef0
0000
2fd0
2fd0
2fd0
2fd0
2fd0
ENDCHAR
STARTCHAR 001a
ENCODING 26
SWIDTH 512 0
DWIDTH 14 0
BBX 14 20 0 -2
BITMAP
0000
0000
0000
0000
0000
0000
0000
0000
0000
0000
0000
0000
0000
0000
0000
0000
0000
0000
0000
0000
ENDCHAR
STARTCHAR 001b
ENCODING 27
SWIDTH 512 0
DWIDTH 14 0
BBX 14 20 0 -2
BITMAP
aaa8
0000
5554
0000
aaa8
0000
5554
0000
aaa8
0000
5554
0000
aaa8
0000
5554
0000
aaa8
0000
5554
0000
ENDCHAR
STARTCHAR 001c
ENCODING 28
SWIDTH 512 0
DWIDTH 14 0
BBX 14 20 0 -2
BITMAP
5554
aaa8
5554
aaa8
5554
aaa8
5554
aaa8
5554
aaa8
5554
aaa8
5554
aaa8
5554
aaa8
5554
aaa8
5554
aaa8
ENDCHAR
STARTCHAR 001d
ENCODING 29
SWIDTH 512 0
DWIDTH 14 0
BBX 14 20 0 -2
BITMAP
0000
0000
0000
0000
0000
0000
0000
0000
0000
0000
0000
0000
0000
0000
0000
0000
0000
0000
0000
0000
ENDCHAR
STARTCHAR 001e
ENCODING 30
SWIDTH 512 0
DWIDTH 14 0
BBX 14 20 0 -2
BITMAP
0000
8000
0108
0000
4040
0800
0000
0000
0000
1010
0000
0100
0000
4000
0000
0408
0040
8000
0000
1084
ENDCHAR
STARTCHAR 001f air
ENCODING 31
SWIDTH 512 0
DWIDTH 14 0
BBX 14 20 0 -2
BITMAP
0000
0000
0000
0000
0000
0000
0000
0000
0300
0300
0000
0000
0000
0000
0000
0000
0000
0000
0000
0000
ENDCHAR
STARTCHAR 0020 solid rock
ENCODING 32
SWIDTH 512 0
DWIDTH 14 0
BBX 14 20 0 -2
BITMAP
0000
0000
0000
0000
0000
0000
0000
0000
0000
0000
0000
0000
0000
0000
0000
0000
0000
0000
0000
0000
ENDCHAR
STARTCHAR 0021 !
ENCODING 33
SWIDTH 512 0
DWIDTH 14 0
BBX 14 20 0 -2
BITMAP
0000
0100
0380
0380
0380
0380
0380
0380
0380
0380
0380
0100
0100
0100
0000
0100
0380
0380
0000
0000
ENDCHAR
STARTCHAR 0022 "
ENCODING 34
SWIDTH 512 0
DWIDTH 14 0
BBX 14 20 0 -2
BITMAP
0000
0c80
0cc0
0cc0
0cc0
04c0
0000
0000
0000
0000
0000
0000
0000
0000
0000
0000
0000
0000
0000
0000
ENDCHAR
STARTCHAR 0023 #
ENCODING 35
SWIDTH 512 0
DWIDTH 14 0
BBX 14 20 0 -2
BITMAP
0000
1080
18c0
18c0
18c0
fff8
18c0
18c0
18c0
18c0
18c0
18c0
18c0
fff8
18c0
18c0
18c0
0840
0000
0000
ENDCHAR
STARTCHAR 0024 $
ENCODING 36
SWIDTH 512 0
DWIDTH 14 0
BBX 14 20 0 -2
BITMAP
0000
1080
18c0
18c8
7ff8
d8c0
d8c0
d8c0
d8c0
7ff0
18d8
18d8
18d8
18d8
fff0
98c0
18c0
0840
0000
0000
ENDCHAR
STARTCHAR 0025 %
ENCODING 37
SWIDTH 512 0
DWIDTH 14 0
BBX 14 20 0 -2
BITMAP
0000
7808
cc18
cc30
cc20
cc40
ccc0
7980
0100
0200
0600
0cf0
0998
1198
2198
6198
4198
80f0
0000
0000
ENDCHAR
STARTCHAR 0026 & demon
ENCODING 38
SWIDTH 512 0
DWIDTH 14 0
BBX 14 20 0 -2
BITMAP
3060
28a0
2720
8708
e738
f278
fff8
1fc0
3fe0
6fb0
4710
4210
4710
0f80
1dc4
1de4
18d8
0d80
0500
0d80
ENDCHAR
STARTCHAR 0027 gorem
ENCODING 39
SWIDTH 512 0
DWIDTH 14 0
BBX 14 20 0 -2
BITMAP
0700
0700
0700
0700
1240
3fe0
2fa0
2720
6230
6230
6230
6230
2720
0d80
18c0
1040
1040
1040
1040
3060
ENDCHAR
STARTCHAR 0028 (
ENCODING 40
SWIDTH 512 0
DWIDTH 14 0
BBX 14 20 0 -2
BITMAP
0000
0080
0100
0300
0200
0600
0600
0c00
0c00
0c00
0c00
0c00
0600
0600
0200
0300
0100
0080
0000
0000
ENDCHAR
STARTCHAR 0029 )
ENCODING 41
SWIDTH 512 0
DWIDTH 14 0
BBX 14 20 0 -2
BITMAP
0000
0800
0400
0600
0200
0300
0300
0180
0180
0180
0180
0180
0300
0300
0200
0600
0400
0800
0000
0000
ENDCHAR
STARTCHAR 002a *
ENCODING 42
SWIDTH 512 0
DWIDTH 14 0
BBX 14 20 0 -2
BITMAP
0000
0700
0700
0200
0200
6230
7270
1ac0
0f80
0700
0f80
1ac0
7270
6230
0200
0700
0700
0000
0000
0000
ENDCHAR
STARTCHAR 002b +
ENCODING 43
SWIDTH 512 0
DWIDTH 14 0
BBX 14 20 0 -2
BITMAP
0000
0000
0000
0000
0200
0200
0200
0200
0200
3fe0
0200
0200
0200
0200
0200
0000
0000
0000
0000
0000
ENDCHAR
STARTCHAR 002c ,
ENCODING 44
SWIDTH 512 0
DWIDTH 14 0
BBX 14 20 0 -2
BITMAP
0000
0000
0000
0000
0000
0000
0000
0000
0000
0000
0000
0000
0000
0000
0700
0700
0700
0300
0200
0400
ENDCHAR
STARTCHAR 002d -
ENCODING 45
SWIDTH 512 0
DWIDTH 14 0
BBX 14 20 0 -2
BITMAP
0000
0000
0000
0000
0000
0000
0000
0000
0000
1fe0
0000
0000
0000
0000
0000
0000
0000
0000
0000
0000
ENDCHAR
STARTCHAR 002e .
ENCODING 46
SWIDTH 512 0
DWIDTH 14 0
BBX 14 20 0 -2
BITMAP
0000
0000
0000
0000
0000
0000
0000
0000
0000
0000
0000
0000
0000
0000
0000
0300
0780
0300
0000
0000
ENDCHAR
STARTCHAR 002f /
ENCODING 47
SWIDTH 512 0
DWIDTH 14 0
BBX 14 20 0 -2
BITMAP
0000
0000
0000
0020
0060
0040
00c0
0180
0100
0300
0600
0400
0c00
1800
1000
3000
2000
0000
0000
0000
ENDCHAR
STARTCHAR 0030 0
ENCODING 48
SWIDTH 512 0
DWIDTH 14 0
BBX 14 20 0 -2
BITMAP
0000
0f80
1040
3060
2020
6030
6030
6030
6030
6030
6030
6030
6030
6030
2020
3060
1040
0f80
0000
0000
ENDCHAR
STARTCHAR 0031 1
ENCODING 49
SWIDTH 512 0
DWIDTH 14 0
BBX 14 20 0 -2
BITMAP
0000
0100
0100
0300
0300
0300
0300
0300
0300
0300
0300
0300
0300
0300
0300
0300
0300
0300
0000
0000
ENDCHAR
STARTCHAR 0032 2
ENCODING 50
SWIDTH 512 0
DWIDTH 14 0
BBX 14 20 0 -2
BITMAP
0000
0fc0
1060
2030
6030
0030
0030
0030
0060
0040
0080
0100
0200
0400
0800
3000
6000
7ff0
0000
0000
ENDCHAR
STARTCHAR 0033 3
ENCODING 51
SWIDTH 512 0
DWIDTH 14 0
BBX 14 20 0 -2
BITMAP
0000
0fc0
1060
2030
6030
0030
0030
0030
0060
07c0
0060
0030
0030
0030
0030
6060
30c0
1f80
0000
0000
ENDCHAR
STARTCHAR 0034 4
ENCODING 52
SWIDTH 512 0
DWIDTH 14 0
BBX 14 20 0 -2
BITMAP
0000
0200
0200
0600
0600
0c00
0c80
1880
18c0
30c0
30c0
60c0
60c0
7ff0
00c0
00c0
00c0
00c0
0000
0000
ENDCHAR
STARTCHAR 0035 5
ENCODING 53
SWIDTH 512 0
DWIDTH 14 0
BBX 14 20 0 -2
BITMAP
0000
7fe0
6000
6000
6000
6000
6000
6000
7fc0
0060
0030
0030
0030
0030
4030
6030
20e0
1f80
0000
0000
ENDCHAR
STARTCHAR 0036 6
ENCODING 54
SWIDTH 512 0
DWIDTH 14 0
BBX 14 20 0 -2
BITMAP
0000
0fc0
1800
3000
3000
2000
6000
6000
6000
6fc0
7060
6030
6030
6030
6030
6030
3060
1fc0
0000
0000
ENDCHAR
STARTCHAR 0037 7
ENCODING 55
SWIDTH 512 0
DWIDTH 14 0
BBX 14 20 0 -2
BITMAP
0000
7ff0
0010
0010
0020
0040
0040
0080
0080
0180
0100
0300
0300
0300
0300
0300
0300
0300
0000
0000
ENDCHAR
STARTCHAR 0038 8
ENCODING 56
SWIDTH 512 0
DWIDTH 14 0
BBX 14 20 0 -2
BITMAP
0000
0f80
1040
2020
6030
6030
6030
6030
3060
1fc0
3060
6030
6030
6030
6030
6030
3060
1fc0
0000
0000
ENDCHAR
STARTCHAR 0039 9
ENCODING 57
SWIDTH 512 0
DWIDTH 14 0
BBX 14 20 0 -2
BITMAP
0000
1fc0
3060
6030
6030
6030
6030
6030
3070
1fb0
0030
0030
0030
0020
0060
0040
0080
3f00
0000
0000
ENDCHAR
STARTCHAR 003a lizard
ENCODING 58
SWIDTH 512 0
DWIDTH 14 0
BBX 14 20 0 -2
BITMAP
0180
0180
0b88
0b88
1390
3390
27f0
3fe0
1f80
0780
0f00
3fc0
7fe0
6e20
8c20
4c20
4e20
2700
23c0
00fc
ENDCHAR
STARTCHAR 003b sea monster
ENCODING 59
SWIDTH 512 0
DWIDTH 14 0
BBX 14 20 0 -2
BITMAP
0000
01e0
03b0
03f8
07f8
0700
0700
0700
0780
6fec
9790
0fcc
37c0
4fe4
8fd8
0fc0
1fc0
c30c
2490
1860
ENDCHAR
STARTCHAR 003c <
ENCODING 60
SWIDTH 512 0
DWIDTH 14 0
BBX 14 20 0 -2
BITMAP
0000
0000
00c0
0180
0300
0600
0c00
1800
3000
3000
1800
0c00
0600
0300
0180
00c0
0000
0000
0000
0000
ENDCHAR
STARTCHAR 003d =
ENCODING 61
SWIDTH 512 0
DWIDTH 14 0
BBX 14 20 0 -2
BITMAP
0000
0000
0000
0000
0000
3fe0
3fe0
0000
0000
0000
0000
3fe0
3fe0
0000
0000
0000
0000
0000
0000
0000
ENDCHAR
STARTCHAR 003e >
ENCODING 62
SWIDTH 512 0
DWIDTH 14 0
BBX 14 20 0 -2
BITMAP
0000
0000
3000
1800
0c00
0600
0300
0180
00c0
00c0
0180
0300
0600
0c00
1800
3000
0000
0000
0000
0000
ENDCHAR
STARTCHAR 003f ?
ENCODING 63
SWIDTH 512 0
DWIDTH 14 0
BBX 14 20 0 -2
BITMAP
0000
0fc0
1030
2018
6018
6018
6018
0030
0060
00c0
0180
0300
0300
0000
0000
0200
0700
0700
0000
0000
ENDCHAR
STARTCHAR 0040 human
ENCODING 64
SWIDTH 512 0
DWIDTH 14 0
BBX 14 20 0 -2
BITMAP
0000
0300
0780
0780
0780
0300
1fe0
2fd0
6fd8
6fd8
6798
6798
6798
6480
0480
0cc0
0cc0
0cc0
0cc0
1ce0
ENDCHAR
STARTCHAR 0041 angelic being
ENCODING 65
SWIDTH 512 0
DWIDTH 14 0
BBX 14 20 0 -2
BITMAP
0780
0cc0
0780
0000
0300
0780
0780
630c
77dc
7efc
6eec
4c64
4ee4
0ee0
0ef0
0ff0
0ff8
06c0
06c0
06c0
ENDCHAR
STARTCHAR 0042 bat
ENCODING 66
SWIDTH 512 0
DWIDTH 14 0
BBX 14 20 0 -2
BITMAP
0000
0000
0000
0880
4890
6730
7770
7ff0
fff8
fff8
fff8
fff8
f778
f278
9048
9048
0000
0000
0000
0000
ENDCHAR
STARTCHAR 0043 centaur
ENCODING 67
SWIDTH 512 0
DWIDTH 14 0
BBX 14 20 0 -2
BITMAP
0000
0070
0070
0040
00e0
01f0
02e8
02e8
02e8
0fe8
3fe0
5fe0
5ff0
5a50
5a50
0a50
0a50
0a50
0a50
0000
ENDCHAR
STARTCHAR 0044 dragon
ENCODING 68
SWIDTH 512 0
DWIDTH 14 0
BBX 14 20 0 -2
BITMAP
0800
0800
1000
3c00
7f80
91c0
20c0
00c0
00c4
03cc
079c
3ffc
4ff4
9fc4
17e0
21e0
20f4
23cc
0680
0ce0
ENDCHAR
STARTCHAR 0045 elemental
ENCODING 69
SWIDTH 512 0
DWIDTH 14 0
BBX 14 20 0 -2
BITMAP
0200
0700
0500
0200
2da0
1540
4a90
2520
0a80
2020
0a80
5050
0200
4890
0500
1040
0880
1040
0880
1040
ENDCHAR
STARTCHAR 0046 fungus, mold
ENCODING 70
SWIDTH 512 0
DWIDTH 14 0
BBX 15 20 0 -2
BITMAP
0000
0000
0000
0000
0000
0fc0
7ff0
7ff8
3ff8
0300
0700
4600
aec0
9f30
8e08
5ec8
1f20
7f10
9e20
8e18
ENDCHAR
STARTCHAR 0047 gnome
ENCODING 71
SWIDTH 512 0
DWIDTH 14 0
BBX 14 20 0 -2
BITMAP
0000
0000
0200
0200
0200
0f80
0f80
0f80
0700
3fc0
7ff0
6fb0
cf98
c718
cf98
4f90
18c0
18c0
18c0
38e0
ENDCHAR
STARTCHAR 0048 giant humanoid
ENCODING 72
SWIDTH 512 0
DWIDTH 14 0
BBX 14 20 0 -2
BITMAP
0700
0f80
0f80
efb8
fff8
fff8
fff8
dfd8
dfd8
dfd8
cf98
cf98
dfd8
1fc0
38e0
38e0
38e0
38e0
78f0
78f0
ENDCHAR
STARTCHAR 0049 invisible stalker
ENCODING 73
SWIDTH 512 0
DWIDTH 14 0
BBX 14 20 0 -2
BITMAP
0000
0700
1860
2010
0010
2490
2480
2010
0010
2010
2010
0000
1020
1020
1000
0040
1080
1000
2600
7800
ENDCHAR
STARTCHAR 004a jabberwock
ENCODING 74
SWIDTH 512 0
DWIDTH 14 0
BBX 14 20 0 -2
BITMAP
0700
0f80
0f80
4a90
6fb0
fff8
fff8
efb8
cf98
9fc8
1fc0
f778
a728
a728
0700
0f80
1fc0
1ac0
1ac0
38e0
ENDCHAR
STARTCHAR 004b Keystone Kop
ENCODING 75
SWIDTH 512 0
DWIDTH 14 0
BBX 14 20 0 -2
BITMAP
0780
1fe0
0780
0780
0300
1fe0
3ff0
3f30
3f30
3ff0
3ff0
37b0
37b0
3ff0
0cc0
0cc0
0cc0
0cc0
0cc0
0cc0
ENDCHAR
STARTCHAR 004c lich
ENCODING 76
SWIDTH 512 0
DWIDTH 14 0
BBX 14 20 0 -2
BITMAP
00e0
01f0
0150
01f0
70e0
51f0
13f0
37f8
27f8
2ff8
3ff8
77f8
67f8
27f8
27f8
27f8
27f8
2528
2120
0360
ENDCHAR
STARTCHAR 004d mummy
ENCODING 77
SWIDTH 512 0
DWIDTH 14 0
BBX 14 20 0 -2
BITMAP
0000
0700
07c0
0760
0200
1fc0
2720
4f10
47dc
6754
7214
4710
4710
0d80
0880
0e80
0ae0
08b0
0880
18c0
ENDCHAR
STARTCHAR 004e naga
ENCODING 78
SWIDTH 512 0
DWIDTH 14 0
BBX 14 20 0 -2
BITMAP
0060
00f0
11d0
09f0
09e0
0980
13e0
27f0
2dd8
4dc8
4de0
cce0
8070
8070
9c30
fe30
6770
03f0
01e0
0000
ENDCHAR
STARTCHAR 004f ogre
ENCODING 79
SWIDTH 512 0
DWIDTH 14 0
BBX 14 20 0 -2
BITMAP
1040
18c0
0f80
0f80
0f80
0700
3fe0
7ff0
fff8
fff8
dfd8
dfd8
cf98
9fc8
9fc8
3de0
3de0
38e0
38e0
38e0
ENDCHAR
STARTCHAR 0050 pudding, ooze
ENCODING 80
SWIDTH 512 0
DWIDTH 14 0
BBX 14 20 0 -2
BITMAP
0000
0000
07c0
0fe0
1da0
1be0
17e0
37e0
37c0
37c0
3fc0
37c0
37e0
3fe0
3ff0
3ff0
3ff0
3ff0
1fe0
0000
ENDCHAR
STARTCHAR 0051 quantum mechanic
ENCODING 81
SWIDTH 512 0
DWIDTH 14 0
BBX 14 20 0 -2
BITMAP
0000
0000
0380
2400
4470
4888
4900
4970
2788
9f84
87e4
4790
3a48
0248
4448
3888
0090
0700
0000
0000
ENDCHAR
STARTCHAR 0052 rust monster
ENCODING 82
SWIDTH 512 0
DWIDTH 14 0
BBX 14 20 0 -2
BITMAP
00e0
0180
0380
0780
0680
0680
0f80
0f80
0ff0
0f88
0f80
1f80
1fc0
1fc0
1fc0
1fc0
1fc0
3fc0
3fe0
4920
ENDCHAR
STARTCHAR 0053 snake
ENCODING 83
SWIDTH 512 0
DWIDTH 14 0
BBX 14 20 0 -2
BITMAP
0000
1f00
3fe0
71f8
6074
6000
6000
3f00
1fc0
01e0
6070
1038
1018
6018
8018
c038
7ff0
0fe0
0000
0000
ENDCHAR
STARTCHAR 0054 troll
ENCODING 84
SWIDTH 512 0
DWIDTH 14 0
BBX 14 20 0 -2
BITMAP
0000
0000
0700
0f80
0f80
0f80
3fe0
7ff0
fff8
fff8
fff8
fff8
dfd8
dfd8
1fc0
1fc0
3fe0
38e0
3de0
7df0
ENDCHAR
STARTCHAR 0055 umber hulk
ENCODING 85
SWIDTH 512 0
DWIDTH 14 0
BBX 14 20 0 -2
BITMAP
0700
0f80
0a80
0f80
3fe0
7ff0
7ff0
6fb0
7ff0
6fb0
7770
7af0
3fe0
1740
1fc0
3de0
38e0
38e0
1dc0
1dc0
ENDCHAR
STARTCHAR 0056 vampire
ENCODING 86
SWIDTH 512 0
DWIDTH 14 0
BBX 14 20 0 -2
BITMAP
0700
0f80
0f80
0700
7ff0
fff8
fff8
fff8
fff8
fff8
fff8
fff8
fff8
fff8
fff8
efb8
8708
0700
0700
0d80
ENDCHAR
STARTCHAR 0057 wraith
ENCODING 87
SWIDTH 512 0
DWIDTH 14 0
BBX 14 20 0 -2
BITMAP
0000
0000
0700
0700
0200
0200
0f80
1240
1740
2220
2720
2220
2720
0200
0500
0500
0500
0880
0880
0880
ENDCHAR
STARTCHAR 0058 xorn
ENCODING 88
SWIDTH 512 0
DWIDTH 14 0
BBX 14 20 0 -2
BITMAP
0700
1fc0
1740
3fe0
7ff0
7570
6030
6ab0
7ff0
3fe0
1fc0
3fe0
7ff0
afa8
afa8
0f80
1fc0
38e0
78f0
78f0
ENDCHAR
STARTCHAR 0059 yeti or ape or large beast
ENCODING 89
SWIDTH 512 0
DWIDTH 14 0
BBX 14 20 0 -2
BITMAP
0200
0700
0700
1fc0
3fe0
7ff0
fff8
fff8
fff8
dfd8
dfd8
dfd8
cf98
cf98
cf98
cf98
d8d8
d8d8
ddd8
cd98
ENDCHAR
STARTCHAR 005a zombie
ENCODING 90
SWIDTH 512 0
DWIDTH 14 0
BBX 14 20 0 -2
BITMAP
0000
0380
0380
0380
0300
0380
0ff0
0f88
0fe0
0710
0700
0700
0600
0500
0480
0cc0
0cc0
0cc0
0cc0
0000
ENDCHAR
STARTCHAR 005b [
ENCODING 91
SWIDTH 512 0
DWIDTH 14 0
BBX 14 20 0 -2
BITMAP
0000
03e0
0300
0300
0300
0300
0300
0300
0300
0300
0300
0300
0300
0300
0300
0300
0300
03e0
0000
0000
ENDCHAR
STARTCHAR 005c \ golem
ENCODING 92
SWIDTH 512 0
DWIDTH 14 0
BBX 14 20 0 -2
BITMAP
0700
0f80
0880
0d80
cd98
7070
3fe0
7ff0
d8d8
dfd8
cd98
dfd8
9fc8
bfe8
2da0
2da0
0d80
1dc0
1dc0
3de0
ENDCHAR
STARTCHAR 005d ]
ENCODING 93
SWIDTH 512 0
DWIDTH 14 0
BBX 14 20 0 -2
BITMAP
0000
1f00
0300
0300
0300
0300
0300
0300
0300
0300
0300
0300
0300
0300
0300
0300
0300
1f00
0000
0000
ENDCHAR
STARTCHAR 005e ^
ENCODING 94
SWIDTH 512 0
DWIDTH 14 0
BBX 14 20 0 -2
BITMAP
0000
0200
0500
0880
1040
2020
0000
0000
0000
0000
0000
0000
0000
0000
0000
0000
0000
0000
0000
0000
ENDCHAR
STARTCHAR 005f _
ENCODING 95
SWIDTH 512 0
DWIDTH 14 0
BBX 14 20 0 -2
BITMAP
0000
0000
0000
0000
0000
0000
0000
0000
0000
0000
0000
0000
0000
0000
0000
0000
0000
fff8
0000
0000
ENDCHAR
STARTCHAR 0060 `
ENCODING 96
SWIDTH 512 0
DWIDTH 14 0
BBX 14 20 0 -2
BITMAP
0000
0700
0700
0700
0600
0200
0100
0000
0000
0000
0000
0000
0000
0000
0000
0000
0000
0000
0000
0000
ENDCHAR
STARTCHAR 0061 ant or other insect
ENCODING 97
SWIDTH 512 0
DWIDTH 14 0
BBX 14 20 0 -2
BITMAP
0000
0000
0000
0000
0000
0000
0000
0000
000c
0514
0524
0560
3ff0
7b78
f6b8
e680
ca40
1120
1120
1120
ENDCHAR
STARTCHAR 0062 blob
ENCODING 98
SWIDTH 512 0
DWIDTH 14 0
BBX 14 20 0 -2
BITMAP
0000
1020
2100
0410
0000
54a8
0200
2094
0ba0
2d70
97f8
1f60
3df0
37e8
8bc0
3ea8
0430
9344
0010
0880
ENDCHAR
STARTCHAR 0063 cockatrice
ENCODING 99
SWIDTH 512 0
DWIDTH 14 0
BBX 14 20 0 -2
BITMAP
0000
0000
0060
00f0
0020
0e38
3f7c
1f70
8f48
43c0
21e0
30e0
30e0
18c0
1dc0
0fc0
0740
0040
00c0
0130
ENDCHAR
STARTCHAR 0064 dog, wolf
ENCODING 100
SWIDTH 512 0
DWIDTH 14 0
BBX 14 20 0 -2
BITMAP
0000
0000
0000
0000
0000
0000
0000
2000
1060
f090
7010
1fe0
1fe0
1fe0
0e70
0c30
0430
0420
0860
0000
ENDCHAR
STARTCHAR 0065 eye or sphere
ENCODING 101
SWIDTH 512 0
DWIDTH 14 0
BBX 14 20 0 -2
BITMAP
0000
0000
0000
0000
0000
0fc0
1860
3330
2590
2bd0
2fd0
2790
3330
1860
0fc0
0000
0000
0000
0000
0000
ENDCHAR
STARTCHAR 0066 cat,tiger
ENCODING 102
SWIDTH 512 0
DWIDTH 14 0
BBX 14 20 0 -2
BITMAP
0000
0000
0000
0000
0000
0000
00e0
0110
0008
0008
2008
6ef8
fff8
fff8
e7f0
0670
0230
0430
08e0
0000
ENDCHAR
STARTCHAR 0067 gremlin
ENCODING 103
SWIDTH 512 0
DWIDTH 14 0
BBX 14 20 0 -2
BITMAP
0000
0000
0000
0000
8004
e31c
e79c
f7bc
7b78
6fc8
1fe0
3ff0
6fd8
6798
6798
6fd8
2cd0
0cc0
0cc0
1ce0
ENDCHAR
STARTCHAR 0068 humanoid
ENCODING 104
SWIDTH 512 0
DWIDTH 14 0
BBX 14 20 0 -2
BITMAP
0000
0780
0780
0780
0780
0300
1fe0
2fd0
2790
4788
4788
6798
6798
6798
0480
0480
0cc0
0cc0
0cc0
1ce0
ENDCHAR
STARTCHAR 0069 imp or minor demon
ENCODING 105
SWIDTH 512 0
DWIDTH 14 0
BBX 14 20 0 -2
BITMAP
0000
0000
0000
0000
0480
0780
0780
0780
3330
3ff0
6fd8
cfcc
cfcc
c78c
cfcc
5fe8
1860
1860
1860
3870
ENDCHAR
STARTCHAR 006a jelly
ENCODING 106
SWIDTH 512 0
DWIDTH 14 0
BBX 14 20 0 -2
BITMAP
0000
0000
0000
0000
0000
0000
0000
0000
0000
00c0
03f0
1ff8
31fc
2ffc
fffc
fffc
fffc
7ff0
3f80
1e00
ENDCHAR
STARTCHAR 006b kobold
ENCODING 107
SWIDTH 512 0
DWIDTH 14 0
BBX 14 20 0 -2
BITMAP
0000
0010
00e0
01c0
01c0
01c0
0180
07c0
0fe0
17d0
27c8
67cc
638c
638c
628c
0240
0460
1860
3860
7070
ENDCHAR
STARTCHAR 006c leprechaun
ENCODING 108
SWIDTH 512 0
DWIDTH 14 0
BBX 14 20 0 -2
BITMAP
0000
0000
0000
0000
00e0
00e0
00e0
0080
0180
07c0
0fe0
13a0
1330
3330
37b0
3480
0480
06c0
06c0
06c0
ENDCHAR
STARTCHAR 006d mimic
ENCODING 109
SWIDTH 512 0
DWIDTH 14 0
BBX 14 20 0 -2
BITMAP
0000
0000
0000
0000
0000
0000
0000
00a0
00f0
c0f8
67f8
3ff0
3ff0
3ff8
3ff8
3ed8
36d8
36d8
36d8
0000
ENDCHAR
STARTCHAR 006e nymph
ENCODING 110
SWIDTH 512 0
DWIDTH 14 0
BBX 14 20 0 -2
BITMAP
0000
0700
0700
0f80
0a80
0700
0f80
1fc0
1740
1240
1740
1740
0f80
0d80
0d80
0d80
0500
0500
0500
0500
ENDCHAR
STARTCHAR 006f orc
ENCODING 111
SWIDTH 512 0
DWIDTH 14 0
BBX 14 20 0 -2
BITMAP
0000
0000
0000
0000
0000
0000
0780
0780
0780
1fe0
3ff0
7ff8
6fd8
e79c
cfcc
dfec
d86c
d86c
dcec
4cc8
ENDCHAR
STARTCHAR 0070 piercer
ENCODING 112
SWIDTH 512 0
DWIDTH 14 0
BBX 14 20 0 -2
BITMAP
0000
0000
0000
0a00
0f00
0fe0
0ff8
0600
0600
0fc0
1fe0
1ff0
1ff0
1ff0
5fe0
3fc0
3fc0
0d80
0d80
0d80
ENDCHAR
STARTCHAR 0071 quadruped
ENCODING 113
SWIDTH 512 0
DWIDTH 14 0
BBX 14 20 0 -2
BITMAP
0000
0000
0000
0000
0000
00c0
0078
0078
0078
0060
3fe0
7ff0
7ff0
bfe0
bfe0
b9a0
14a0
14a0
14a0
0000
ENDCHAR
STARTCHAR 0072 rodent, rat
ENCODING 114
SWIDTH 512 0
DWIDTH 14 0
BBX 14 20 0 -2
BITMAP
0000
0000
0000
0000
0000
0000
0000
2000
2000
2000
4000
80c0
80c0
9ff4
bfd8
fffc
7fe0
3840
0c20
0000
ENDCHAR
STARTCHAR 0073 spider
ENCODING 115
SWIDTH 512 0
DWIDTH 14 0
BBX 14 20 0 -2
BITMAP
0000
0000
0000
1004
980c
d814
b424
a424
95ec
9bf4
eff4
bff4
8ff4
8ff8
9fe4
bee4
bea4
1c24
0024
0024
ENDCHAR
STARTCHAR 0074 trapper or lurker above
ENCODING 116
SWIDTH 512 0
DWIDTH 14 0
BBX 14 20 0 -2
BITMAP
0000
0000
0000
0000
2020
9040
9248
5fd8
7af0
e8b8
e538
9048
c018
dad8
7270
3fe0
4f90
ca98
1240
0000
ENDCHAR
STARTCHAR 0075 unicorn
ENCODING 117
SWIDTH 512 0
DWIDTH 14 0
BBX 14 20 0 -2
BITMAP
0008
0010
0020
0060
0078
0078
00e0
00e0
0fe0
3fe0
7fe0
bfe0
bff0
bc50
a850
2850
2850
2850
2840
0000
ENDCHAR
STARTCHAR 0076 vortex
ENCODING 118
SWIDTH 512 0
DWIDTH 14 0
BBX 14 20 0 -2
BITMAP
0000
0400
09e0
5218
5400
94f8
9504
97f0
8f88
47c4
3fa4
82a4
7ca4
00a8
6128
1e40
0080
0000
0000
0000
ENDCHAR
STARTCHAR 0077 worm
ENCODING 119
SWIDTH 512 0
DWIDTH 14 0
BBX 14 20 0 -2
BITMAP
0000
0880
0880
0500
0500
0700
3260
4f90
8708
b768
b768
8708
4f90
3260
0700
0500
0500
0880
0880
0000
ENDCHAR
STARTCHAR 0078 mythical/fantastic insect
ENCODING 120
SWIDTH 512 0
DWIDTH 14 0
BBX 14 20 0 -2
BITMAP
0090
0090
0060
0060
0060
0060
0060
07e0
00f8
1fcc
03f0
3f98
07e0
7f30
0fc0
0c60
3e00
3600
1400
0000
ENDCHAR
STARTCHAR 0079 light
ENCODING 121
SWIDTH 512 0
DWIDTH 14 0
BBX 14 20 0 -2
BITMAP
0000
2220
1240
8208
4710
3760
3fe0
1fc0
3fe0
fff8
3fe0
1fc0
3fe0
3760
4710
8208
1240
2220
0000
0000
ENDCHAR
STARTCHAR 007a zruty
ENCODING 122
SWIDTH 512 0
DWIDTH 14 0
BBX 14 20 0 -2
BITMAP
03c0
03e0
06b0
07f0
07e0
0700
3760
7ff0
fff8
fff8
fff8
dfd8
efb8
efb8
6fb0
0f80
1fc0
38e0
7df0
7df0
ENDCHAR
STARTCHAR 007b
ENCODING 123
SWIDTH 512 0
DWIDTH 14 0
BBX 14 20 0 -2
BITMAP
0000
0040
0080
0080
0180
0180
0180
0180
0100
0600
0100
0180
0180
0180
0180
0080
0080
0040
0000
0000
ENDCHAR
STARTCHAR 007c
ENCODING 124
SWIDTH 512 0
DWIDTH 14 0
BBX 14 20 0 -2
BITMAP
0000
0200
0200
0200
0200
0200
0200
0200
0200
0200
0200
0200
0200
0200
0200
0200
0200
0200
0000
0000
ENDCHAR
STARTCHAR 007d
ENCODING 125
SWIDTH 512 0
DWIDTH 14 0
BBX 14 20 0 -2
BITMAP
0000
1000
0800
0800
0c00
0c00
0c00
0c00
0400
0300
0400
0c00
0c00
0c00
0c00
0800
0800
1000
0000
0000
ENDCHAR
STARTCHAR 007e worm tail
ENCODING 126
SWIDTH 512 0
DWIDTH 14 0
BBX 14 20 0 -2
BITMAP
1040
1040
1fc0
3fe0
3fe0
7ff0
f8f8
7ff0
6fb0
6fb0
6fb0
7ff0
f8f8
7ff0
3fe0
3fe0
1fc0
1040
1040
0000
ENDCHAR
STARTCHAR 007f
ENCODING 127
SWIDTH 512 0
DWIDTH 14 0
BBX 14 20 0 -2
BITMAP
0000
fffc
0000
fffc
0000
fffc
0000
fffc
0000
fffc
0000
fffc
0000
fffc
0000
fffc
0000
fffc
0000
fffc
ENDCHAR
STARTCHAR 0080 no door
ENCODING 128
SWIDTH 512 0
DWIDTH 14 0
BBX 14 20 0 -2
BITMAP
2010
2010
6018
c00c
0800
0008
0000
8000
0000
0080
0000
0008
1000
0000
0000
0000
0040
c00c
6418
2010
ENDCHAR
STARTCHAR 0081 vertical open door
ENCODING 129
SWIDTH 512 0
DWIDTH 14 0
BBX 14 20 0 -2
BITMAP
0000
3bf0
3bf0
0000
0008
0080
0000
0800
0000
0000
0040
0000
0000
2000
0100
0000
0000
0000
2fd0
2fd0
ENDCHAR
STARTCHAR 0082 horizontal open door
ENCODING 130
SWIDTH 512 0
DWIDTH 14 0
BBX 14 20 0 -2
BITMAP
3000
6800
4800
c80c
c80c
e80c
c80c
5c08
c80c
c80c
c80c
c80c
e80c
c80c
5008
d00c
e00c
e00c
0000
0000
ENDCHAR
STARTCHAR 0083 vertical closed door
ENCODING 131
SWIDTH 512 0
DWIDTH 14 0
BBX 14 20 0 -2
BITMAP
0000
3bf0
3ff0
3030
6018
4008
6008
7808
6048
4048
40e8
40a8
4048
6008
7808
6008
4008
7ff8
2fd0
2fd0
ENDCHAR
STARTCHAR 0084 horizontal closed door
ENCODING 132
SWIDTH 512 0
DWIDTH 14 0
BBX 14 20 0 -2
BITMAP
0000
1ff0
3018
e00c
c00c
c00c
e00c
7808
e04c
c04c
c0ec
c0ac
c04c
e00c
7808
e00c
c00c
fffc
0000
0000
ENDCHAR
STARTCHAR 0085 floor of a room
ENCODING 133
SWIDTH 512 0
DWIDTH 14 0
BBX 14 20 0 -2
BITMAP
0000
8000
0208
0000
0040
0800
0000
0000
0008
1000
0000
0040
0000
4000
0000
0408
0000
8000
0000
0208
ENDCHAR
STARTCHAR 0086 dark corridor
ENCODING 134
SWIDTH 512 0
DWIDTH 14 0
BBX 14 20 0 -2
BITMAP
00f8
398c
6d04
4504
458c
6cf8
3800
0070
7cd8
c688
82d8
c670
7c00
0078
3ccc
6684
4284
42cc
6678
3c00
ENDCHAR
STARTCHAR 0087 lit corridor
ENCODING 135
SWIDTH 512 0
DWIDTH 14 0
BBX 14 20 0 -2
BITMAP
00f8
39ac
5554
6dac
5554
6cf8
3800
0070
7ca8
aad8
d6a8
aa70
7c00
0078
3cd4
56ac
6ad4
56ac
6a78
3c00
ENDCHAR
STARTCHAR 0088 stairs up
ENCODING 136
SWIDTH 512 0
DWIDTH 14 0
BBX 14 20 0 -2
BITMAP
8080
0800
f810
8900
8820
8f00
8900
89e4
8920
f93c
d924
af24
d524
abe4
d564
aabc
d554
fffc
4100
0828
ENDCHAR
STARTCHAR 0089 stairs down
ENCODING 137
SWIDTH 512 0
DWIDTH 14 0
BBX 14 20 0 -2
BITMAP
0008
4400
0020
fffc
aaac
d554
faac
8d54
8fac
8954
89ec
8934
893c
8924
8924
8924
8924
fffc
4008
1220
ENDCHAR
STARTCHAR 008a trap
ENCODING 138
SWIDTH 512 0
DWIDTH 14 0
BBX 14 20 0 -2
BITMAP
0000
0000
0000
0000
0000
0000
3030
5028
b814
9824
8c44
4e4c
2698
2798
1330
0970
0960
7dfc
4284
7ffc
ENDCHAR
STARTCHAR 008b web
ENCODING 139
SWIDTH 512 0
DWIDTH 14 0
BBX 14 20 0 -2
BITMAP
c930
b924
9724
52e4
325c
2e48
25c8
e4b8
5c94
4b90
c970
b92c
9724
92e4
725c
2e48
25c8
e4b8
5c94
4990
ENDCHAR
STARTCHAR 008c pool or moat
ENCODING 140
SWIDTH 512 0
DWIDTH 14 0
BBX 14 20 0 -2
BITMAP
8704
4888
3070
0000
c180
2244
1c38
0000
60c0
9120
0e1c
0000
860c
4910
30e0
0000
070c
8890
7060
0000
ENDCHAR
STARTCHAR 008d fountain
ENCODING 141
SWIDTH 512 0
DWIDTH 14 0
BBX 14 20 0 -2
BITMAP
0030
3048
4080
1828
2200
4170
8988
1128
2100
0108
1f60
3d70
6d78
6ff8
6ff8
77f8
3ff0
1fe0
0000
0000
ENDCHAR
STARTCHAR 008e kitchen sink
ENCODING 142
SWIDTH 512 0
DWIDTH 14 0
BBX 14 20 0 -2
BITMAP
0000
1c00
0800
0800
7fe0
4860
4f60
6150
6150
5048
5048
4ff8
2aa8
2d58
1aa8
0ff0
0500
0500
0d80
0f80
ENDCHAR
STARTCHAR 008f throne
ENCODING 143
SWIDTH 512 0
DWIDTH 14 0
BBX 14 20 0 -2
BITMAP
0000
2020
5050
5050
7070
5fd0
5550
5550
5550
5550
5550
5550
7ff0
7070
7270
7770
7270
7270
7070
7ff0
ENDCHAR
STARTCHAR 0090 altar
ENCODING 144
SWIDTH 512 0
DWIDTH 14 0
BBX 14 20 0 -2
BITMAP
0004
0000
0000
1080
0000
0000
0000
0004
8800
0000
fff8
d558
fff8
5050
5050
5750
5750
5750
5750
7ff0
ENDCHAR
STARTCHAR 0091 ladder up
ENCODING 145
SWIDTH 512 0
DWIDTH 14 0
BBX 14 20 0 -2
BITMAP
1dc0
5740
1040
1748
1040
1744
5040
1740
5048
1740
1040
3760
a220
2228
3fe0
0000
0420
0000
9040
0008
ENDCHAR
STARTCHAR 0092 ladder down
ENCODING 146
SWIDTH 512 0
DWIDTH 14 0
BBX 14 20 0 -2
BITMAP
0000
2100
0010
0000
2000
0080
0808
0000
1dc0
1540
1740
7070
f778
f078
f778
f078
7770
1fc0
4008
0840
ENDCHAR
STARTCHAR 0093 vertical raised drawbridge
ENCODING 147
SWIDTH 512 0
DWIDTH 14 0
BBX 14 20 0 -2
BITMAP
eabc
3fe0
0000
0000
0000
0000
fff8
aaa8
fff8
aaa8
5550
6ab0
3fe0
2aa0
1540
1fc0
1fc0
fffc
2020
2020
ENDCHAR
STARTCHAR 0094 horizontal raised drawbridge
ENCODING 148
SWIDTH 512 0
DWIDTH 14 0
BBX 14 20 0 -2
BITMAP
8004
8004
8004
83c4
8d44
bbcc
d548
bbcc
d548
bbcc
d548
bbcc
d548
bbcc
8d44
83c4
8004
8004
8004
8004
ENDCHAR
STARTCHAR 0095 ice
ENCODING 149
SWIDTH 512 0
DWIDTH 14 0
BBX 14 20 0 -2
BITMAP
0000
0000
0000
0000
0000
0000
0880
0500
0200
0500
0880
0000
0000
0000
0000
0000
0000
0000
0000
0000
ENDCHAR
STARTCHAR 0096 lava
ENCODING 150
SWIDTH 512 0
DWIDTH 14 0
BBX 14 20 0 -2
BITMAP
0000
0000
0110
0000
4000
0000
0024
2204
1060
4440
0510
2190
ac04
46a4
edec
fffc
fffc
fffc
0000
0000
ENDCHAR
STARTCHAR 0097 vertical beam
ENCODING 151
SWIDTH 512 0
DWIDTH 14 0
BBX 14 20 0 -2
BITMAP
0100
0200
0200
0100
0200
0400
0800
0400
0400
0200
0200
0100
0080
0100
0200
0200
0400
0200
0200
0100
ENDCHAR
STARTCHAR 0098 horizontal beam
ENCODING 152
SWIDTH 512 0
DWIDTH 14 0
BBX 14 20 0 -2
BITMAP
0000
0000
0000
0000
0000
0000
0000
0000
2000
5040
8cb4
0308
0000
0000
0000
0000
0000
0000
0000
0000
ENDCHAR
STARTCHAR 0099 left slant(beam)
ENCODING 153
SWIDTH 512 0
DWIDTH 14 0
BBX 14 20 0 -2
BITMAP
8000
7000
1000
1000
1000
0800
0800
0800
0e00
0260
03a0
0020
0020
0020
0020
0030
0010
0010
001c
0004
ENDCHAR
STARTCHAR 009a right slant(beam)
ENCODING 154
SWIDTH 512 0
DWIDTH 14 0
BBX 14 20 0 -2
BITMAP
0004
0004
0018
0010
0010
0010
00f0
0300
0200
0200
0100
0100
0100
0100
0300
7c00
4000
4000
4000
8000
ENDCHAR
STARTCHAR 009b digging beam
ENCODING 155
SWIDTH 512 0
DWIDTH 14 0
BBX 14 20 0 -2
BITMAP
8004
4008
3030
0840
0480
0300
0480
0840
3030
4008
8004
4008
3030
0840
0480
0300
0480
0840
3030
4008
ENDCHAR
STARTCHAR 009c camera flash beam
ENCODING 156
SWIDTH 512 0
DWIDTH 14 0
BBX 14 20 0 -2
BITMAP
0108
1010
4480
2480
0110
1120
0844
c298
2fe0
078c
4fe0
1298
2600
0440
0828
4824
8290
0080
0820
4810
ENDCHAR
STARTCHAR 009d left boomerang
ENCODING 157
SWIDTH 512 0
DWIDTH 14 0
BBX 14 20 0 -2
BITMAP
0000
0000
0000
0c00
1200
1100
0880
0440
0220
0120
0120
0220
0440
0880
1100
1200
0c00
0000
0000
0000
ENDCHAR
STARTCHAR 009e right boomerang
ENCODING 158
SWIDTH 512 0
DWIDTH 14 0
BBX 14 20 0 -2
BITMAP
0000
0000
0000
00c0
0120
0220
0440
0880
1100
1200
1200
1100
0880
0440
0220
0120
00c0
0000
0000
0000
ENDCHAR
STARTCHAR 009f magic resistance (1/4)
ENCODING 159
SWIDTH 512 0
DWIDTH 14 0
BBX 14 20 0 -2
BITMAP
0000
0000
003c
00c0
011c
0260
0480
0900
0a00
1200
1400
1400
1400
2400
2800
2800
2800
2800
2800
2800
ENDCHAR
STARTCHAR 00a0 magic resistance (2/4)
ENCODING 160
SWIDTH 512 0
DWIDTH 14 0
BBX 14 20 0 -2
BITMAP
0000
0000
f000
0c00
e200
1900
0480
0240
0140
0120
00a0
00a0
00a0
0090
0050
0050
0050
0050
0050
0050
ENDCHAR
STARTCHAR 00a1 magic resistance (3/4) + cloud
ENCODING 161
SWIDTH 512 0
DWIDTH 14 0
BBX 14 20 0 -2
BITMAP
2800
2800
2800
2800
2800
2800
2400
1400
1400
1400
1200
0a00
0900
0480
0260
011c
00c0
003c
0000
0000
ENDCHAR
STARTCHAR 00a2 magic resistance (4/4)
ENCODING 162
SWIDTH 512 0
DWIDTH 14 0
BBX 14 20 0 -2
BITMAP
0050
0050
0050
0050
0050
0050
0090
00a0
00a0
00a0
0120
0140
0240
0480
1900
e200
0c00
f000
0000
0000
ENDCHAR
STARTCHAR 00a3 swallow (1/8)
ENCODING 163
SWIDTH 512 0
DWIDTH 14 0
BBX 14 20 0 -2
BITMAP
0000
0000
0000
0000
0000
0004
0018
0020
0040
0080
0100
0100
0200
0200
0200
0400
0400
0400
0400
0400
ENDCHAR
STARTCHAR 00a4 swallow (2/8)
ENCODING 164
SWIDTH 512 0
DWIDTH 14 0
BBX 14 20 0 -2
BITMAP
0000
0000
0000
0000
7ff8
8004
0000
0000
0000
0000
0000
0000
0000
0000
0000
0000
0000
0000
0000
0000
ENDCHAR
STARTCHAR 00a5 swallow (3/8)
ENCODING 165
SWIDTH 512 0
DWIDTH 14 0
BBX 14 20 0 -2
BITMAP
0000
0000
0000
0000
0000
8000
6000
1000
0800
0400
0200
0200
0100
0100
0100
0080
0080
0080
0080
0080
ENDCHAR
STARTCHAR 00a6 swallow (4/8)
ENCODING 166
SWIDTH 512 0
DWIDTH 14 0
BBX 14 20 0 -2
BITMAP
0400
0800
0800
0800
0800
0800
1000
1000
1000
1000
1000
1000
1000
1000
0800
0800
0800
0800
0800
0400
ENDCHAR
STARTCHAR 00a7 swallow (5/8)
ENCODING 167
SWIDTH 512 0
DWIDTH 14 0
BBX 14 20 0 -2
BITMAP
0080
0040
0040
0040
0040
0040
0020
0020
0020
0020
0020
0020
0020
0020
0040
0040
0040
0040
0040
0080
ENDCHAR
STARTCHAR 00a8 swallow (6/8)
ENCODING 168
SWIDTH 512 0
DWIDTH 14 0
BBX 14 20 0 -2
BITMAP
0400
0400
0400
0400
0400
0200
0200
0200
0100
0100
0080
0040
0020
0018
0004
0000
0000
0000
0000
0000
ENDCHAR
STARTCHAR 00a9 swallow (7/8)
ENCODING 169
SWIDTH 512 0
DWIDTH 14 0
BBX 14 20 0 -2
BITMAP
0000
0000
0000
0000
0000
0000
0000
0000
0000
0000
0000
0000
0000
0000
8004
7ff8
0000
0000
0000
0000
ENDCHAR
STARTCHAR 00aa swallow (8/8)
ENCODING 170
SWIDTH 512 0
DWIDTH 14 0
BBX 14 20 0 -2
BITMAP
0080
0080
0080
0080
0080
0100
0100
0100
0200
0200
0400
0800
1000
6000
8000
0000
0000
0000
0000
0000
ENDCHAR
STARTCHAR 00ab explosion (1/9) 
ENCODING 171
SWIDTH 512 0
DWIDTH 14 0
BBX 14 20 0 -2
BITMAP
0000
0000
001c
00e0
0100
0200
041c
0860
0880
110c
1110
1220
2244
2448
2490
2490
4920
4920
4920
4920
ENDCHAR
STARTCHAR 00ac explosion (2/9)
ENCODING 172
SWIDTH 512 0
DWIDTH 14 0
BBX 14 20 0 -2
BITMAP
0000
1ff0
e00c
0000
0fe0
f01c
0000
0fe0
701c
8000
07c0
783c
8000
0000
0000
0000
0000
0000
0000
0000
ENDCHAR
STARTCHAR 00ad explosion (3/9)
ENCODING 173
SWIDTH 512 0
DWIDTH 14 0
BBX 14 20 0 -2
BITMAP
0000
0000
f800
0600
8300
fdc0
0240
0360
8130
6110
3910
0910
0910
8d10
c510
4498
6488
2488
2408
2400
ENDCHAR
STARTCHAR 00ae explosion (4/9)
ENCODING 174
SWIDTH 512 0
DWIDTH 14 0
BBX 14 20 0 -2
BITMAP
1110
1110
1210
1220
1220
1220
2220
2220
2220
2220
2220
2220
2220
2220
3220
1220
1320
1120
19b0
0890
ENDCHAR
STARTCHAR 00af explosion (5/9) center
ENCODING 175
SWIDTH 512 0
DWIDTH 14 0
BBX 14 20 0 -2
BITMAP
fff8
800c
3fe0
43c8
bc68
a014
a014
a7d0
a454
a65c
a2dc
e388
6010
3830
26e0
70c4
1f98
9c70
c640
41c0
ENDCHAR
STARTCHAR 00b0 explosion (6/9)
ENCODING 176
SWIDTH 512 0
DWIDTH 14 0
BBX 14 20 0 -2
BITMAP
0cc0
0470
0218
0208
c208
6208
2108
2128
2128
2128
2128
2128
2128
6128
c128
8328
0230
0270
1cd0
31b0
ENDCHAR
STARTCHAR 00b1 explosion (7/9)
ENCODING 177
SWIDTH 512 0
DWIDTH 14 0
BBX 14 20 0 -2
BITMAP
9120
8920
8920
8930
8918
890c
8980
48e0
0818
4c08
4380
4060
6038
300c
0c00
0600
0330
01cc
0000
0000
ENDCHAR
STARTCHAR 00b2 explosion (8/9)
ENCODING 178
SWIDTH 512 0
DWIDTH 14 0
BBX 14 20 0 -2
BITMAP
e004
3ff0
8000
c004
4004
600c
3ff8
0000
c000
6000
1ffc
e000
3004
1ff8
0000
fffc
0000
c07c
7fc0
0000
ENDCHAR
STARTCHAR 00b3 explosion (9/9)
ENCODING 179
SWIDTH 512 0
DWIDTH 14 0
BBX 14 20 0 -2
BITMAP
2588
2508
e508
8708
0e18
3a18
e218
0218
0630
0420
f830
0010
0070
00c4
81e8
7e10
0070
0040
06c0
7d80
ENDCHAR
STARTCHAR 00b4 mimic(transform)
ENCODING 180
SWIDTH 512 0
DWIDTH 14 0
BBX 14 20 0 -2
BITMAP
0000
0000
0000
0000
0000
0300
0780
0300
0fc0
0780
0300
0780
1fe0
33f0
37f0
1fe0
0fc0
3ff0
0000
0000
ENDCHAR
STARTCHAR 00b5 amulet
ENCODING 181
SWIDTH 512 0
DWIDTH 14 0
BBX 14 20 0 -2
BITMAP
0000
07c0
0d60
1830
1010
3018
2008
2008
2008
3018
1010
1c70
0440
07c0
0de0
0be0
0fe0
0fe0
07c0
0000
ENDCHAR
STARTCHAR 00b6 food
ENCODING 182
SWIDTH 512 0
DWIDTH 14 0
BBX 14 20 0 -2
BITMAP
0000
0000
0000
0000
0000
3ff0
1fe0
1fe0
0fc0
0300
0300
0300
0300
0300
0300
0300
0fc0
0000
0000
0000
ENDCHAR
STARTCHAR 00b7 wepon
ENCODING 183
SWIDTH 512 0
DWIDTH 14 0
BBX 14 20 0 -2
BITMAP
0200
0700
0500
0980
0d80
0a80
0a80
0a80
0a80
0a80
0a80
0a90
3fe0
0700
0700
0700
0700
0700
0f80
0000
ENDCHAR
STARTCHAR 00b8 tool(box)
ENCODING 184
SWIDTH 512 0
DWIDTH 14 0
BBX 14 20 0 -2
BITMAP
0000
0000
0080
0008
0000
5ff8
1018
2018
2038
4038
7ff8
4078
5f78
d070
5070
4060
7fe0
0100
0008
2000
ENDCHAR
STARTCHAR 00b9 iron ball
ENCODING 185
SWIDTH 512 0
DWIDTH 14 0
BBX 14 20 0 -2
BITMAP
0000
0100
0000
0000
0fc0
1fe0
31f0
63f8
47f8
4ff8
4ff8
dffc
7ffc
bff4
1fe0
0fc0
0000
0000
0100
0000
ENDCHAR
STARTCHAR 00ba iron chain
ENCODING 186
SWIDTH 512 0
DWIDTH 14 0
BBX 14 20 0 -2
BITMAP
0000
0000
0000
0000
0000
0000
0000
0000
0000
0000
0000
7774
dddc
7774
0000
0000
0000
0000
0000
0000
ENDCHAR
STARTCHAR 00bb boulder or statue
ENCODING 187
SWIDTH 512 0
DWIDTH 14 0
BBX 14 20 0 -2
BITMAP
0000
0000
0700
0880
0840
11c0
11c0
14a0
30b0
35f0
2170
2970
2970
22f0
21f0
3bf0
7ffc
3ff8
0000
0000
ENDCHAR
STARTCHAR 00bc armer
ENCODING 188
SWIDTH 512 0
DWIDTH 14 0
BBX 14 20 0 -2
BITMAP
0000
0000
0000
0000
1fe0
3ff0
3df0
3df0
3070
3df0
3df0
1fe0
1fe0
0fc0
0780
0300
0000
0000
0000
0000
ENDCHAR
STARTCHAR 00bd potion
ENCODING 189
SWIDTH 512 0
DWIDTH 14 0
BBX 14 20 0 -2
BITMAP
0000
0000
0000
0000
0000
0300
0780
0300
0fc0
0780
0300
0780
1fe0
33f0
37f0
1fe0
0fc0
3ff0
0000
0000
ENDCHAR
STARTCHAR 00be scroll
ENCODING 190
SWIDTH 512 0
DWIDTH 14 0
BBX 14 20 0 -2
BITMAP
0000
0000
0000
0018
00a8
0168
01b8
025c
0238
0430
0460
0960
08c0
12c0
1180
2580
2300
3700
2ef8
1ff8
ENDCHAR
STARTCHAR 00bf wand
ENCODING 191
SWIDTH 512 0
DWIDTH 14 0
BBX 14 20 0 -2
BITMAP
0000
00e0
03f0
0330
0370
00e0
00e0
01c0
01c0
0380
0380
0700
0700
0e00
0e00
1c00
1c00
3800
3800
0000
ENDCHAR
STARTCHAR 00c0 ring
ENCODING 192
SWIDTH 512 0
DWIDTH 14 0
BBX 14 20 0 -2
BITMAP
0000
0000
1220
4a40
2008
0010
8004
4fc8
1fe0
3fb0
3858
2fb8
1070
1fe0
0780
0000
0000
0000
0000
0000
ENDCHAR
STARTCHAR 00c1 gem or rock
ENCODING 193
SWIDTH 512 0
DWIDTH 14 0
BBX 14 20 0 -2
BITMAP
0000
0000
0000
0000
0000
9290
4aa4
0008
1fc0
2960
5ff0
2560
15c0
0b80
073c
02fc
0000
0000
0000
0000
ENDCHAR
STARTCHAR 00c2 gold
ENCODING 194
SWIDTH 512 0
DWIDTH 14 0
BBX 14 20 0 -2
BITMAP
0000
0000
0000
0000
0000
0000
0000
0000
1110
4924
2008
0380
8440
4ae4
1170
26f8
2ff8
3ff8
0000
0000
ENDCHAR
STARTCHAR 00c3 venom
ENCODING 195
SWIDTH 512 0
DWIDTH 14 0
BBX 14 20 0 -2
BITMAP
0000
0000
0000
0180
0240
0440
0480
0300
0000
0000
0000
0000
0000
0000
0000
0000
0000
0000
0000
0000
ENDCHAR
STARTCHAR 00c4 spell book
ENCODING 196
SWIDTH 512 0
DWIDTH 14 0
BBX 14 20 0 -2
BITMAP
0000
0000
0600
0500
08c0
0830
1208
1188
2048
2010
4210
6120
3820
6e40
d540
6b80
1c80
0700
0000
0000
ENDCHAR
STARTCHAR 00c5 leash
ENCODING 197
SWIDTH 512 0
DWIDTH 14 0
BBX 14 20 0 -2
BITMAP
0000
0008
0008
0030
0060
0180
0fc0
1a20
1210
3408
2408
2608
2370
31c0
1000
1800
0c00
0600
03f0
0000
ENDCHAR
STARTCHAR 00c6 harp
ENCODING 198
SWIDTH 512 0
DWIDTH 14 0
BBX 14 20 0 -2
BITMAP
0300
0400
0c00
0e00
0380
04e0
0530
0958
0a48
1298
14a8
2528
2958
4a58
52b0
fff0
ffe0
e000
4000
4000
ENDCHAR
STARTCHAR 00c7 key
ENCODING 199
SWIDTH 512 0
DWIDTH 14 0
BBX 14 20 0 -2
BITMAP
0000
0000
0f00
0f00
0e00
0f00
0e00
0f00
0c00
0c00
0c00
0c00
3f00
2d00
2d00
3300
1e00
0000
0000
0000
ENDCHAR
STARTCHAR 00c8 credit card
ENCODING 200
SWIDTH 512 0
DWIDTH 14 0
BBX 14 20 0 -2
BITMAP
0000
0010
0200
0000
0000
2108
0000
0000
0000
1ff0
1010
2fe0
2020
2020
4040
7fc0
7fc0
0010
4800
0000
ENDCHAR
STARTCHAR 00c9 pick-axe
ENCODING 201
SWIDTH 512 0
DWIDTH 14 0
BBX 14 20 0 -2
BITMAP
0000
0000
0000
3c10
0f30
03e0
00e0
00f0
01bc
0118
0310
0600
0400
0c00
1800
1000
3000
2000
0000
0000
ENDCHAR
STARTCHAR 00ca bugle
ENCODING 202
SWIDTH 512 0
DWIDTH 14 0
BBX 14 20 0 -2
BITMAP
0000
0000
0000
0000
0000
4000
6000
7008
7ff8
7ff8
7668
6420
47e0
03c0
0000
0000
0000
0000
0000
0000
ENDCHAR
STARTCHAR 00cb marker
ENCODING 203
SWIDTH 512 0
DWIDTH 14 0
BBX 14 20 0 -2
BITMAP
0000
0200
0000
2000
0000
0010
0038
00f8
0130
0320
07e0
0bc0
1180
2b00
4600
2c00
3800
1000
0080
0000
ENDCHAR
STARTCHAR 00cc lock pick
ENCODING 204
SWIDTH 512 0
DWIDTH 14 0
BBX 14 20 0 -2
BITMAP
0000
0000
01c0
01c0
0040
0040
0040
3840
1840
0840
18e0
18a0
18e0
1ca0
1ce0
1ca0
1ce0
1c40
1c00
0000
ENDCHAR
STARTCHAR 00cd chest
ENCODING 205
SWIDTH 512 0
DWIDTH 14 0
BBX 14 20 0 -2
BITMAP
0000
0810
0000
0000
07e0
2810
0808
1f98
1058
2038
2038
3ff8
2230
2230
2020
3fe0
0000
0800
0020
0000
ENDCHAR
STARTCHAR 00ce horn
ENCODING 206
SWIDTH 512 0
DWIDTH 14 0
BBX 14 20 0 -2
BITMAP
0000
0000
0000
0000
0004
0018
0010
0030
0030
0060
40e0
7bc0
7fc0
7f80
7e00
4000
0000
0000
0000
0000
ENDCHAR
STARTCHAR 00cf bell
ENCODING 207
SWIDTH 512 0
DWIDTH 14 0
BBX 14 20 0 -2
BITMAP
0000
0700
0500
0700
0200
0200
0700
0f80
0f80
1bc0
17c0
17c0
1fc0
1fc0
3fe0
0200
0000
0000
0000
0000
ENDCHAR
STARTCHAR 00d0 helmet
ENCODING 208
SWIDTH 512 0
DWIDTH 14 0
BBX 14 20 0 -2
BITMAP
0000
0200
0200
0200
0f80
1fc0
3fe0
3fe0
7ff0
7ff0
3060
3060
38e0
38e0
18c0
0000
0000
0000
0000
0000
ENDCHAR
STARTCHAR 00d1 mail(armor)
ENCODING 209
SWIDTH 512 0
DWIDTH 14 0
BBX 14 20 0 -2
BITMAP
0000
0000
18c0
18c0
1fc0
1fc0
7df0
7ff0
7df0
7ff0
7df0
6ab0
3fe0
3fe0
3fe0
0000
0000
0000
0000
0000
ENDCHAR
STARTCHAR 00d2 cloak
ENCODING 210
SWIDTH 512 0
DWIDTH 14 0
BBX 14 20 0 -2
BITMAP
0000
0000
0000
0cc0
0cc0
0cc0
1fe0
1fe0
1fe0
1fe0
1fe0
3ff0
3ff0
3ff0
3ff0
7ff0
7ff8
7ff8
0000
0000
ENDCHAR
STARTCHAR 00d3 boots
ENCODING 211
SWIDTH 512 0
DWIDTH 14 0
BBX 14 20 0 -2
BITMAP
0000
0000
0000
0000
0000
0000
0000
0000
0000
3de0
3de0
3de0
3de0
3de0
3de0
3de0
7df0
fdf8
0000
0000
ENDCHAR
STARTCHAR 00d4 gloves
ENCODING 212
SWIDTH 512 0
DWIDTH 14 0
BBX 14 20 0 -2
BITMAP
0000
0000
0000
0000
0000
38e0
3cf0
1e78
5e78
5e78
7ef8
7ef8
3df0
1450
3cf0
3cf0
3cf0
3cf0
3cf0
0000
ENDCHAR
STARTCHAR 00d5 hawaiian shirt
ENCODING 213
SWIDTH 512 0
DWIDTH 14 0
BBX 14 20 0 -2
BITMAP
0000
0000
0000
1860
3cf0
7ff8
7ff8
7ff8
6fd8
0fc0
0fc0
0fc0
0fc0
0fc0
0000
0000
0000
0000
0000
0000
ENDCHAR
STARTCHAR 00d6 mummy wrapping
ENCODING 214
SWIDTH 512 0
DWIDTH 14 0
BBX 14 20 0 -2
BITMAP
0000
0000
0000
0780
18e0
3f30
73f8
6c58
6f98
03c0
0c40
0f80
03c0
0c40
0f80
0bc0
0000
0000
0000
0000
ENDCHAR
STARTCHAR 00d7
ENCODING 215
SWIDTH 512 0
DWIDTH 14 0
BBX 14 20 0 -2
BITMAP
0000
000c
0010
0010
0030
0020
0060
0020
0060
7c30
3870
3830
3830
3c70
1c60
1ee0
1fe0
0fc0
0780
0000
ENDCHAR
STARTCHAR 00d8
ENCODING 216
SWIDTH 512 0
DWIDTH 14 0
BBX 14 20 0 -2
BITMAP
0000
0000
0000
0000
0000
07c0
1ff0
3ff8
3ff8
2fe8
3838
2fe8
2fe8
2928
2828
1830
0fe0
0000
0000
0000
ENDCHAR
STARTCHAR 00d9
ENCODING 217
SWIDTH 512 0
DWIDTH 14 0
BBX 14 20 0 -2
BITMAP
0000
0000
0000
0000
0100
0100
1110
1390
3bb8
3938
1110
1930
0fe0
07c0
0380
0380
07c0
0fe0
0000
0000
ENDCHAR
STARTCHAR 00da
ENCODING 218
SWIDTH 512 0
DWIDTH 14 0
BBX 14 20 0 -2
BITMAP
0000
0000
0000
0000
0000
0000
0000
0000
0000
0000
0000
0000
0000
0000
0000
0000
0000
0000
0000
0000
ENDCHAR
STARTCHAR 00db
ENCODING 219
SWIDTH 512 0
DWIDTH 14 0
BBX 14 20 0 -2
BITMAP
0000
0000
0000
0000
0000
0000
0000
0000
0000
0000
0000
0000
0000
0000
0000
0000
0000
0000
0000
0000
ENDCHAR
STARTCHAR 00dc
ENCODING 220
SWIDTH 512 0
DWIDTH 14 0
BBX 14 20 0 -2
BITMAP
0000
0000
0000
0000
0000
0000
0000
0000
0000
0000
0000
0000
0000
0000
0000
0000
0000
0000
0000
0000
ENDCHAR
STARTCHAR 00dd
ENCODING 221
SWIDTH 512 0
DWIDTH 14 0
BBX 14 20 0 -2
BITMAP
0000
0000
0000
0000
0000
0000
0000
0000
0000
0000
0000
0000
0000
0000
0000
0000
0000
0000
0000
0000
ENDCHAR
STARTCHAR 00de
ENCODING 222
SWIDTH 512 0
DWIDTH 14 0
BBX 14 20 0 -2
BITMAP
0000
0000
0000
0000
0000
0000
0000
0000
0000
0000
0000
0000
0000
0000
0000
0000
0000
0000
0000
0000
ENDCHAR
STARTCHAR 00df
ENCODING 223
SWIDTH 512 0
DWIDTH 14 0
BBX 14 20 0 -2
BITMAP
0000
0000
0000
0000
0000
0000
0000
0000
0000
0000
0000
0000
0000
0000
0000
0000
0000
0000
0000
0000
ENDCHAR
STARTCHAR 00e0
ENCODING 224
SWIDTH 512 0
DWIDTH 14 0
BBX 14 20 0 -2
BITMAP
0000
0000
0000
0000
0000
0000
0000
0000
0000
0000
0000
0000
0000
0000
0000
0000
0000
0000
0000
0000
ENDCHAR
STARTCHAR 00e1
ENCODING 225
SWIDTH 512 0
DWIDTH 14 0
BBX 14 20 0 -2
BITMAP
0000
0000
0000
0000
0000
0000
0000
0000
0000
0000
0000
0000
0000
0000
0000
0000
0000
0000
0000
0000
ENDCHAR
STARTCHAR 00e2
ENCODING 226
SWIDTH 512 0
DWIDTH 14 0
BBX 14 20 0 -2
BITMAP
0000
0000
0000
0000
0000
0000
0000
0000
0000
0000
0000
0000
0000
0000
0000
0000
0000
0000
0000
0000
ENDCHAR
STARTCHAR 00e3
ENCODING 227
SWIDTH 512 0
DWIDTH 14 0
BBX 14 20 0 -2
BITMAP
0000
0000
0000
0000
0000
0000
0000
0000
0000
0000
0000
0000
0000
0000
0000
0000
0000
0000
0000
0000
ENDCHAR
STARTCHAR 00e4
ENCODING 228
SWIDTH 512 0
DWIDTH 14 0
BBX 14 20 0 -2
BITMAP
0000
0000
0000
0000
0000
0000
0000
0000
0000
0000
0000
0000
0000
0000
0000
0000
0000
0000
0000
0000
ENDCHAR
STARTCHAR 00e5
ENCODING 229
SWIDTH 512 0
DWIDTH 14 0
BBX 14 20 0 -2
BITMAP
0000
0000
0000
0000
0000
0000
0000
0000
0000
0000
0000
0000
0000
0000
0000
0000
0000
0000
0000
0000
ENDCHAR
STARTCHAR 00e6
ENCODING 230
SWIDTH 512 0
DWIDTH 14 0
BBX 14 20 0 -2
BITMAP
0000
0000
0000
0000
0000
0000
0000
0000
0000
0000
0000
0000
0000
0000
0000
0000
0000
0000
0000
0000
ENDCHAR
STARTCHAR 00e7
ENCODING 231
SWIDTH 512 0
DWIDTH 14 0
BBX 14 20 0 -2
BITMAP
0000
0000
0000
0000
0000
0000
0000
0000
0000
0000
0000
0000
0000
0000
0000
0000
0000
0000
0000
0000
ENDCHAR
STARTCHAR 00e8
ENCODING 232
SWIDTH 512 0
DWIDTH 14 0
BBX 14 20 0 -2
BITMAP
0000
0000
0000
0000
0000
0000
0000
0000
0000
0000
0000
0000
0000
0000
0000
0000
0000
0000
0000
0000
ENDCHAR
STARTCHAR 00e9
ENCODING 233
SWIDTH 512 0
DWIDTH 14 0
BBX 14 20 0 -2
BITMAP
0000
0000
0000
0000
0000
0000
0000
0000
0000
0000
0000
0000
0000
0000
0000
0000
0000
0000
0000
0000
ENDCHAR
STARTCHAR 00ea
ENCODING 234
SWIDTH 512 0
DWIDTH 14 0
BBX 14 20 0 -2
BITMAP
0000
0000
0000
0000
0000
0000
0000
0000
0000
0000
0000
0000
0000
0000
0000
0000
0000
0000
0000
0000
ENDCHAR
STARTCHAR 00eb
ENCODING 235
SWIDTH 512 0
DWIDTH 14 0
BBX 14 20 0 -2
BITMAP
0000
0000
0000
0000
0000
0000
0000
0000
0000
0000
0000
0000
0000
0000
0000
0000
0000
0000
0000
0000
ENDCHAR
STARTCHAR 00ec
ENCODING 236
SWIDTH 512 0
DWIDTH 14 0
BBX 14 20 0 -2
BITMAP
0000
0000
0000
0000
0000
0000
0000
0000
0000
0000
0000
0000
0000
0000
0000
0000
0000
0000
0000
0000
ENDCHAR
STARTCHAR 00ed
ENCODING 237
SWIDTH 512 0
DWIDTH 14 0
BBX 14 20 0 -2
BITMAP
0000
0000
0000
0000
0000
0000
0000
0000
0000
0000
0000
0000
0000
0000
0000
0000
0000
0000
0000
0000
ENDCHAR
STARTCHAR 00ee
ENCODING 238
SWIDTH 512 0
DWIDTH 14 0
BBX 14 20 0 -2
BITMAP
0000
0000
0000
0000
0000
0000
0000
0000
0000
0000
0000
0000
0000
0000
0000
0000
0000
0000
0000
0000
ENDCHAR
STARTCHAR 00ef
ENCODING 239
SWIDTH 512 0
DWIDTH 14 0
BBX 14 20 0 -2
BITMAP
0000
0000
0000
0000
0000
0000
0000
0000
0000
0000
0000
0000
0000
0000
0000
0000
0000
0000
0000
0000
ENDCHAR
STARTCHAR 00f0
ENCODING 240
SWIDTH 512 0
DWIDTH 14 0
BBX 14 20 0 -2
BITMAP
0000
0000
0000
0000
0000
0000
0000
0000
0000
0000
0000
0000
0000
0000
0000
0000
0000
0000
0000
0000
ENDCHAR
STARTCHAR 00f1
ENCODING 241
SWIDTH 512 0
DWIDTH 14 0
BBX 14 20 0 -2
BITMAP
0000
0000
0000
0000
0000
0000
0000
0000
0000
0000
0000
0000
0000
0000
0000
0000
0000
0000
0000
0000
ENDCHAR
STARTCHAR 00f2
ENCODING 242
SWIDTH 512 0
DWIDTH 14 0
BBX 14 20 0 -2
BITMAP
0000
0000
0000
0000
0000
0000
0000
0000
0000
0000
0000
0000
0000
0000
0000
0000
0000
0000
0000
0000
ENDCHAR
STARTCHAR 00f3
ENCODING 243
SWIDTH 512 0
DWIDTH 14 0
BBX 14 20 0 -2
BITMAP
0000
0000
0000
0000
0000
0000
0000
0000
0000
0000
0000
0000
0000
0000
0000
0000
0000
0000
0000
0000
ENDCHAR
STARTCHAR 00f4
ENCODING 244
SWIDTH 512 0
DWIDTH 14 0
BBX 14 20 0 -2
BITMAP
0000
0000
0000
0000
0000
0000
0000
0000
0000
0000
0000
0000
0000
0000
0000
0000
0000
0000
0000
0000
ENDCHAR
STARTCHAR 00f5
ENCODING 245
SWIDTH 512 0
DWIDTH 14 0
BBX 14 20 0 -2
BITMAP
0000
0000
0000
0000
0000
0000
0000
0000
0000
0000
0000
0000
0000
0000
0000
0000
0000
0000
0000
0000
ENDCHAR
STARTCHAR 00f6
ENCODING 246
SWIDTH 512 0
DWIDTH 14 0
BBX 14 20 0 -2
BITMAP
0000
0000
0000
0000
0000
0000
0000
0000
0000
0000
0000
0000
0000
0000
0000
0000
0000
0000
0000
0000
ENDCHAR
STARTCHAR 00f7
ENCODING 247
SWIDTH 512 0
DWIDTH 14 0
BBX 14 20 0 -2
BITMAP
0000
0000
0000
0000
0000
0000
0000
0000
0000
0000
0000
0000
0000
0000
0000
0000
0000
0000
0000
0000
ENDCHAR
STARTCHAR 00f8
ENCODING 248
SWIDTH 512 0
DWIDTH 14 0
BBX 14 20 0 -2
BITMAP
0000
0000
0000
0000
0000
0000
0000
0000
0000
0000
0000
0000
0000
0000
0000
0000
0000
0000
0000
0000
ENDCHAR
STARTCHAR 00f9
ENCODING 249
SWIDTH 512 0
DWIDTH 14 0
BBX 14 20 0 -2
BITMAP
0000
0000
0000
0000
0000
0000
0000
0000
0000
0000
0000
0000
0000
0000
0000
0000
0000
0000
0000
0000
ENDCHAR
STARTCHAR 00fa
ENCODING 250
SWIDTH 512 0
DWIDTH 14 0
BBX 14 20 0 -2
BITMAP
0000
0000
0000
0000
0000
0000
0000
0000
0000
0000
0000
0000
0000
0000
0000
0000
0000
0000
0000
0000
ENDCHAR
STARTCHAR 00fb
ENCODING 251
SWIDTH 512 0
DWIDTH 14 0
BBX 14 20 0 -2
BITMAP
0000
0000
0000
0000
0000
0000
0000
0000
0000
0000
0000
0000
0000
0000
0000
0000
0000
0000
0000
0000
ENDCHAR
STARTCHAR 00fc
ENCODING 252
SWIDTH 512 0
DWIDTH 14 0
BBX 14 20 0 -2
BITMAP
0000
0000
0000
0000
0000
0000
0000
0000
0000
0000
0000
0000
0000
0000
0000
0000
0000
0000
0000
0000
ENDCHAR
STARTCHAR 00fd
ENCODING 253
SWIDTH 512 0
DWIDTH 14 0
BBX 14 20 0 -2
BITMAP
0000
0000
0000
0000
0000
0000
0000
0000
0000
0000
0000
0000
0000
0000
0000
0000
0000
0000
0000
0000
ENDCHAR
STARTCHAR 00fe
ENCODING 254
SWIDTH 512 0
DWIDTH 14 0
BBX 14 20 0 -2
BITMAP
0000
0000
0000
0000
0000
0000
0000
0000
0000
0000
0000
0000
0000
0000
0000
0000
0000
0000
0000
0000
ENDCHAR
STARTCHAR 00ff
ENCODING 255
SWIDTH 512 0
DWIDTH 14 0
BBX 14 20 0 -2
BITMAP
0000
0000
0000
0000
0000
0000
0000
0000
0000
0000
0000
0000
0000
0000
0000
0000
0000
0000
0000
0000
ENDCHAR
ENDFONT
